<?xml version="1.0" standalone="no"?>
<!DOCTYPE svg PUBLIC "-//W3C//DTD SVG 20010904//EN"
 "http://www.w3.org/TR/2001/REC-SVG-20010904/DTD/svg10.dtd">
<svg version="1.0" xmlns="http://www.w3.org/2000/svg"
 width="400.000000pt" height="400.000000pt" viewBox="0 0 400.000000 400.000000"
 preserveAspectRatio="xMidYMid meet">
<metadata>
Created by potrace 1.14, written by Peter Selinger 2001-2017
</metadata>
<g transform="translate(0.000000,400.000000) scale(0.100000,-0.100000)"
fill="#000000" stroke="none">
<path d="M1858 3995 c-1 -1 -28 -5 -58 -9 -119 -12 -154 -19 -334 -61 -81 -19
-247 -85 -366 -144 -275 -139 -504 -331 -703 -591 -136 -178 -285 -488 -332
-692 -47 -205 -59 -310 -59 -498 0 -167 10 -273 39 -410 2 -14 7 -36 10 -49
19 -97 82 -275 143 -403 208 -441 572 -788 1030 -984 87 -37 233 -85 298 -98
10 -2 39 -9 64 -15 123 -30 231 -39 440 -36 118 1 229 5 245 9 17 3 46 9 65
12 72 12 87 16 162 35 258 65 531 202 752 377 161 127 341 333 460 524 111
182 226 479 251 655 3 21 8 44 10 51 20 57 28 491 12 595 -74 478 -269 856
-610 1185 -31 31 -69 65 -84 76 -14 12 -42 35 -63 51 -31 26 -101 74 -210 145
-125 81 -362 176 -550 222 -108 26 -116 27 -170 33 -25 3 -61 8 -80 11 -38 6
-356 14 -362 9z"/>
</g>
</svg>
