<svg enable-background="new 0 0 85.76 79.99" viewBox="0 0 85.76 79.99" xmlns="http://www.w3.org/2000/svg"><g fill="#101010"><path d="m208.74 76.66v2.9c-1.75.65-6.11 1.98-12.37 1.98-6.12 0-10.49-1.34-12.26-1.99v-2.85c2.13.69 5.9 1.39 12.39 1.39 6.32.01 10.1-.74 12.24-1.43m1.5-2.28s-2.93 2.22-13.74 2.22c-11.43 0-13.89-2.22-13.89-2.22v6.19s5.24 2.47 13.76 2.47c8.68 0 13.87-2.47 13.87-2.47z"/><path d="m208.74 71.87v2.9c-1.76.65-6.14 1.99-12.37 1.99-6.12 0-10.49-1.34-12.26-1.99v-2.85c2.13.69 5.9 1.39 12.39 1.39 6.32 0 10.1-.76 12.24-1.44m1.5-2.29s-2.93 2.22-13.74 2.22c-11.43 0-13.89-2.22-13.89-2.22v6.19s5.24 2.47 13.76 2.47c8.68 0 13.87-2.47 13.87-2.47z"/><path d="m208.74 66.85v2.9c-1.75.65-6.11 1.98-12.37 1.98-6.12 0-10.49-1.34-12.26-1.99v-2.84c2.13.69 5.9 1.39 12.39 1.39 6.32 0 10.1-.75 12.24-1.44m1.5-2.29s-2.93 2.22-13.74 2.22c-11.43 0-13.89-2.22-13.89-2.22v6.19s5.24 2.47 13.76 2.47c8.68 0 13.87-2.47 13.87-2.47z"/><path d="m208.74 61.83v2.9c-1.75.65-6.11 1.98-12.37 1.98-6.12 0-10.49-1.34-12.26-1.99v-2.85c2.13.69 5.9 1.39 12.39 1.39 6.32.01 10.1-.74 12.24-1.43m1.5-2.29s-2.93 2.22-13.74 2.22c-11.43 0-13.89-2.22-13.89-2.22v6.19s5.24 2.47 13.76 2.47c8.68 0 13.87-2.47 13.87-2.47z"/><path d="m208.74 56.81v2.9c-1.75.65-6.11 1.98-12.37 1.98-6.12 0-10.49-1.34-12.26-1.99v-2.85c2.13.69 5.9 1.39 12.39 1.39 6.32.01 10.1-.74 12.24-1.43m1.5-2.29s-2.93 2.22-13.74 2.22c-11.43 0-13.89-2.22-13.89-2.22v6.19s5.24 2.47 13.76 2.47c8.68 0 13.87-2.47 13.87-2.47z"/><path d="m208.74 51.79v2.9c-1.76.65-6.14 1.99-12.37 1.99-6.12 0-10.49-1.34-12.26-1.99v-2.85c2.13.69 5.9 1.39 12.39 1.39 6.32 0 10.1-.75 12.24-1.44m1.5-2.29s-2.93 2.22-13.74 2.22c-11.43 0-13.89-2.22-13.89-2.22v6.19s5.24 2.47 13.76 2.47c8.68 0 13.87-2.47 13.87-2.47z"/><path d="m208.74 46.77v2.9c-1.76.65-6.14 1.99-12.37 1.99-6.12 0-10.49-1.34-12.26-1.99v-2.85c2.13.69 5.9 1.39 12.39 1.39 6.32 0 10.1-.75 12.24-1.44m1.5-2.28s-2.93 2.22-13.74 2.22c-11.43 0-13.89-2.22-13.89-2.22v6.19s5.24 2.47 13.76 2.47c8.68 0 13.87-2.47 13.87-2.47z"/><path d="m208.74 41.75v2.9c-1.76.65-6.14 1.99-12.37 1.99-6.12 0-10.49-1.34-12.26-1.99v-2.85c2.13.69 5.9 1.39 12.39 1.39 6.32 0 10.1-.75 12.24-1.44m1.5-2.28s-2.93 2.22-13.74 2.22c-11.43 0-13.89-2.22-13.89-2.22v6.19s5.24 2.47 13.76 2.47c8.68 0 13.87-2.47 13.87-2.47z"/><path d="m208.74 36.73v2.9c-1.76.65-6.14 1.99-12.37 1.99-6.12 0-10.49-1.34-12.26-1.99v-2.85c2.13.69 5.9 1.39 12.39 1.39 6.32 0 10.1-.75 12.24-1.44m1.5-2.28s-2.93 2.22-13.74 2.22c-11.43 0-13.89-2.22-13.89-2.22v6.19s5.24 2.47 13.76 2.47c8.68 0 13.87-2.47 13.87-2.47z"/><path d="m208.74 31.71v2.9c-1.76.65-6.14 1.99-12.37 1.99-6.12 0-10.49-1.34-12.26-1.99v-2.85c2.13.69 5.9 1.39 12.39 1.39 6.32 0 10.1-.75 12.24-1.44m1.5-2.28s-2.93 2.22-13.74 2.22c-11.43 0-13.89-2.22-13.89-2.22v6.19s5.24 2.47 13.76 2.47c8.68 0 13.87-2.47 13.87-2.47z"/><path d="m208.74 26.69v2.9c-1.76.65-6.14 1.99-12.37 1.99-6.12 0-10.49-1.34-12.26-1.99v-2.85c2.13.69 5.9 1.39 12.39 1.39 6.32 0 10.1-.75 12.24-1.44m1.5-2.28s-2.93 2.22-13.74 2.22c-11.43 0-13.89-2.22-13.89-2.22v6.19s5.24 2.47 13.76 2.47c8.68 0 13.87-2.47 13.87-2.47z"/><path d="m196.43 22.62c6.51 0 10.63 1.05 11.98 1.79-1.34.74-5.47 1.79-11.98 1.79s-10.63-1.05-11.98-1.79c1.34-.74 5.47-1.79 11.98-1.79m0-1.5c-7.63 0-13.82 1.47-13.82 3.29s6.19 3.29 13.82 3.29 13.82-1.47 13.82-3.29c-.01-1.82-6.19-3.29-13.82-3.29z"/><path d="m157.1 34.72c1.8 1.33 5.15 3.19 11.3 5.26 6.05 2.03 9.87 2.51 12.06 2.54l-.92 2.75c-.2.01-.43.01-.68.01-2.06 0-6.31-.27-11.68-2.07-5.8-1.95-9.52-4.61-10.99-5.79zm-.68-2.69-1.97 5.87s4.18 4.01 12.25 6.73c5.49 1.84 9.85 2.15 12.16 2.15 1.15 0 1.78-.08 1.78-.08l1.97-5.87s-.57.19-1.94.19c-2 0-5.71-.42-11.8-2.46-10.83-3.64-12.45-6.53-12.45-6.53z"/><path d="m159.36 32.76c2.58 0 6.56.82 10.66 2.2 6.15 2.07 9.72 4.36 10.77 5.5-.27.05-.68.09-1.25.09-2.58 0-6.56-.82-10.66-2.2-6.15-2.07-9.72-4.36-10.77-5.5.27-.05.67-.09 1.25-.09m0-1.5c-1.68 0-2.78.32-3.01.99-.58 1.72 4.81 5.09 12.05 7.52 4.42 1.48 8.49 2.28 11.13 2.28 1.68 0 2.78-.32 3.01-.99.58-1.72-4.81-5.09-12.05-7.52-4.41-1.49-8.49-2.28-11.13-2.28z"/><path d="m180.62 22.04.55 2.84c-1.61.97-5.66 3.11-11.77 4.29-2.54.49-5.08.74-7.54.74-2.23 0-3.91-.21-4.87-.37l-.54-2.8c.69.08 1.53.14 2.56.14 2.69 0 6-.38 9.86-1.12 6.21-1.19 9.78-2.64 11.75-3.72m1.04-2.53s-2.46 2.74-13.07 4.79c-4.34.84-7.43 1.09-9.58 1.09-3.41 0-4.48-.65-4.48-.65l1.17 6.08s2.3.59 6.15.59c2.16 0 4.81-.19 7.82-.77 8.52-1.64 13.15-5.06 13.15-5.06z"/><path d="m176.18 19.7c1.96 0 3.11.21 3.7.4-1.19.99-5.04 2.79-11.41 4.02-3.01.58-5.99.9-8.39.9-1.96 0-3.11-.21-3.7-.4 1.19-.99 5.04-2.79 11.41-4.02 3.01-.58 5.99-.9 8.39-.9m0-1.5c-2.42 0-5.44.3-8.67.93-7.49 1.45-13.29 4.06-12.94 5.85.2 1.01 2.33 1.54 5.52 1.54 2.42 0 5.44-.3 8.67-.93 7.49-1.45 13.29-4.06 12.94-5.85-.2-1.02-2.33-1.54-5.52-1.54z"/><path d="m129.7 27.55c2.04.93 5.69 2.08 12.13 2.84 2.56.31 4.92.46 7.01.46 2.37 0 4.1-.19 5.32-.43l-.34 2.87c-1.29.31-3.93.81-7.54.81-1.63 0-3.31-.1-4.98-.3-6.07-.72-10.26-2.57-11.94-3.42zm-1.21-2.5-.73 6.15s4.91 3.08 13.37 4.09c1.88.22 3.61.31 5.16.31 5.57 0 8.91-1.13 8.91-1.13l.73-6.15s-1.76 1.03-7.08 1.03c-1.83 0-4.08-.12-6.83-.45-11.36-1.35-13.53-3.85-13.53-3.85z"/><path d="m136.4 24.76c1.88 0 3.9.13 6 .38 6.44.77 10.41 2.29 11.67 3.19-.8.32-2.65.75-6.1.75-1.88 0-3.9-.13-6-.38-6.44-.77-10.41-2.29-11.67-3.19.8-.32 2.65-.75 6.1-.75m0-1.5c-4.56 0-7.78.74-7.93 2.02-.22 1.8 5.75 4 13.33 4.9 2.2.26 4.3.39 6.17.39 4.56 0 7.78-.74 7.93-2.02.22-1.8-5.75-4-13.33-4.9-2.2-.27-4.3-.39-6.17-.39z"/><path d="m157.53 6.34c1.98 1.04 5.57 2.39 11.96 3.51 3.42.6 6.46.91 9.03.91 1.35 0 2.43-.08 3.27-.2l-.5 2.85c-1.03.19-2.92.45-5.44.45-2.31 0-4.69-.21-7.09-.63-6.02-1.06-10.11-3.13-11.73-4.08zm-1.07-2.56-1.07 6.1s4.73 3.34 13.12 4.82c2.8.49 5.28.66 7.35.66 4.24 0 6.74-.7 6.74-.7l1.07-6.1s-1.35.7-5.15.7c-2.11 0-4.97-.21-8.78-.88-11.25-1.99-13.28-4.6-13.28-4.6z"/><path d="m162.42 3.87c2.34 0 5.07.26 7.92.76 6.39 1.12 10.27 2.86 11.48 3.83-.64.21-1.92.46-4.18.46-2.34 0-5.07-.26-7.92-.76-6.39-1.12-10.27-2.86-11.48-3.83.64-.21 1.92-.46 4.18-.46m0-1.5c-3.46 0-5.81.57-6 1.64-.31 1.79 5.52 4.31 13.04 5.63 3.02.53 5.85.79 8.18.79 3.46 0 5.81-.57 6-1.64.31-1.79-5.52-4.31-13.04-5.63-3.03-.54-5.86-.79-8.18-.79z"/><path d="m155.01 76.71v2.9c-1.76.65-6.14 1.99-12.37 1.99-6.12 0-10.49-1.34-12.26-1.99v-2.85c2.13.69 5.9 1.39 12.39 1.39 6.32 0 10.1-.76 12.24-1.44m1.5-2.29s-2.93 2.22-13.74 2.22c-11.43 0-13.89-2.22-13.89-2.22v6.19s5.24 2.47 13.76 2.47c8.68 0 13.87-2.47 13.87-2.47z"/><path d="m155.01 71.69v2.9c-1.76.65-6.14 1.99-12.37 1.99-6.12 0-10.49-1.34-12.26-1.99v-2.85c2.13.69 5.9 1.39 12.39 1.39 6.32 0 10.1-.75 12.24-1.44m1.5-2.29s-2.93 2.22-13.74 2.22c-11.43 0-13.89-2.22-13.89-2.22v6.19s5.24 2.47 13.76 2.47c8.68 0 13.87-2.47 13.87-2.47z"/><path d="m155.01 66.67v2.9c-1.76.65-6.14 1.99-12.37 1.99-6.12 0-10.49-1.34-12.26-1.99v-2.85c2.13.69 5.9 1.39 12.39 1.39 6.32 0 10.1-.75 12.24-1.44m1.5-2.29s-2.93 2.22-13.74 2.22c-11.43 0-13.89-2.22-13.89-2.22v6.19s5.24 2.47 13.76 2.47c8.68 0 13.87-2.47 13.87-2.47z"/><path d="m155.01 61.65v2.9c-1.76.65-6.14 1.99-12.37 1.99-6.12 0-10.49-1.34-12.26-1.99v-2.85c2.13.69 5.9 1.39 12.39 1.39 6.32 0 10.1-.75 12.24-1.44m1.5-2.29s-2.93 2.22-13.74 2.22c-11.43 0-13.89-2.22-13.89-2.22v6.19s5.24 2.47 13.76 2.47c8.68 0 13.87-2.47 13.87-2.47z"/><path d="m155.01 56.63v2.9c-1.76.65-6.14 1.99-12.37 1.99-6.12 0-10.49-1.34-12.26-1.99v-2.85c2.13.69 5.9 1.39 12.39 1.39 6.32 0 10.1-.75 12.24-1.44m1.5-2.29s-2.93 2.22-13.74 2.22c-11.43 0-13.89-2.22-13.89-2.22v6.19s5.24 2.47 13.76 2.47c8.68 0 13.87-2.47 13.87-2.47z"/><path d="m155.01 51.61v2.9c-1.75.65-6.11 1.98-12.37 1.98-6.12 0-10.49-1.34-12.26-1.99v-2.85c2.13.69 5.9 1.39 12.39 1.39 6.32.01 10.1-.74 12.24-1.43m1.5-2.28s-2.93 2.22-13.74 2.22c-11.43 0-13.89-2.22-13.89-2.22v6.19s5.24 2.47 13.76 2.47c8.68 0 13.87-2.47 13.87-2.47z"/><path d="m155.01 46.59v2.9c-1.75.65-6.11 1.98-12.37 1.98-6.12 0-10.49-1.34-12.26-1.99v-2.85c2.13.69 5.9 1.39 12.39 1.39 6.32.01 10.1-.74 12.24-1.43m1.5-2.28s-2.93 2.22-13.74 2.22c-11.43 0-13.89-2.22-13.89-2.22v6.19s5.24 2.47 13.76 2.47c8.68 0 13.87-2.47 13.87-2.47z"/><path d="m155.01 41.57v2.9c-1.75.65-6.11 1.98-12.37 1.98-6.12 0-10.49-1.34-12.26-1.99v-2.85c2.13.69 5.9 1.39 12.39 1.39 6.32.01 10.1-.74 12.24-1.43m1.5-2.28s-2.93 2.22-13.74 2.22c-11.43 0-13.89-2.22-13.89-2.22v6.19s5.24 2.47 13.76 2.47c8.68 0 13.87-2.47 13.87-2.47z"/><path d="m142.7 37.5c6.51 0 10.63 1.05 11.98 1.79-1.34.74-5.47 1.79-11.98 1.79s-10.63-1.05-11.98-1.79c1.34-.75 5.47-1.79 11.98-1.79m0-1.5c-7.63 0-13.82 1.47-13.82 3.29s6.19 3.29 13.82 3.29 13.82-1.47 13.82-3.29-6.19-3.29-13.82-3.29z"/><path d="m182.06 76.71v2.9c-1.76.65-6.14 1.99-12.37 1.99-6.12 0-10.49-1.34-12.26-1.99v-2.85c2.13.69 5.9 1.39 12.39 1.39 6.32 0 10.1-.76 12.24-1.44m1.5-2.29s-2.93 2.22-13.74 2.22c-11.43 0-13.89-2.22-13.89-2.22v6.19s5.24 2.47 13.76 2.47c8.68 0 13.87-2.47 13.87-2.47z"/><path d="m182.06 71.69v2.9c-1.76.65-6.14 1.99-12.37 1.99-6.12 0-10.49-1.34-12.26-1.99v-2.85c2.13.69 5.9 1.39 12.39 1.39 6.32 0 10.1-.75 12.24-1.44m1.5-2.29s-2.93 2.22-13.74 2.22c-11.43 0-13.89-2.22-13.89-2.22v6.19s5.24 2.47 13.76 2.47c8.68 0 13.87-2.47 13.87-2.47z"/><path d="m182.06 66.67v2.9c-1.76.65-6.14 1.99-12.37 1.99-6.12 0-10.49-1.34-12.26-1.99v-2.85c2.13.69 5.9 1.39 12.39 1.39 6.32 0 10.1-.75 12.24-1.44m1.5-2.29s-2.93 2.22-13.74 2.22c-11.43 0-13.89-2.22-13.89-2.22v6.19s5.24 2.47 13.76 2.47c8.68 0 13.87-2.47 13.87-2.47z"/><path d="m182.06 61.65v2.9c-1.76.65-6.14 1.99-12.37 1.99-6.12 0-10.49-1.34-12.26-1.99v-2.85c2.13.69 5.9 1.39 12.39 1.39 6.32 0 10.1-.75 12.24-1.44m1.5-2.29s-2.93 2.22-13.74 2.22c-11.43 0-13.89-2.22-13.89-2.22v6.19s5.24 2.47 13.76 2.47c8.68 0 13.87-2.47 13.87-2.47z"/><path d="m182.06 56.63v2.9c-1.76.65-6.14 1.99-12.37 1.99-6.12 0-10.49-1.34-12.26-1.99v-2.85c2.13.69 5.9 1.39 12.39 1.39 6.32 0 10.1-.75 12.24-1.44m1.5-2.29s-2.93 2.22-13.74 2.22c-11.43 0-13.89-2.22-13.89-2.22v6.19s5.24 2.47 13.76 2.47c8.68 0 13.87-2.47 13.87-2.47z"/><path d="m182.06 51.61v2.9c-1.75.65-6.11 1.98-12.37 1.98-6.12 0-10.49-1.34-12.26-1.99v-2.85c2.13.69 5.9 1.39 12.39 1.39 6.32.01 10.1-.74 12.24-1.43m1.5-2.28s-2.93 2.22-13.74 2.22c-11.43 0-13.89-2.22-13.89-2.22v6.19s5.24 2.47 13.76 2.47c8.68 0 13.87-2.47 13.87-2.47z"/><path d="m169.74 47.53c6.51 0 10.63 1.05 11.98 1.79-1.34.74-5.47 1.79-11.98 1.79s-10.63-1.05-11.98-1.79c1.35-.74 5.47-1.79 11.98-1.79m0-1.5c-7.63 0-13.82 1.47-13.82 3.29s6.19 3.29 13.82 3.29 13.82-1.47 13.82-3.29-6.19-3.29-13.82-3.29z"/></g><circle cx="42.88" cy="-57.97" fill="none" r="12.61" stroke="#101010" stroke-miterlimit="10" stroke-width="3"/><path d="m13.34-45.81 9.46 2.2-5.58-11.13-3.89 8.9" fill="#101010"/><path d="m8.67-43.37 9.47 2.2-5.59-11.13-3.89 8.91" fill="#101010"/><path d="m13.4-70.26 5.13 8.25 3.92-11.82-9.04 3.54" fill="#101010"/><path d="m8.37-71.83 5.13 8.24 3.92-11.81-9.04 3.54" fill="#101010"/><path d="m30.73-87.51-2.2 9.46 11.12-5.58-8.9-3.89" fill="#101010"/><path d="m28.28-92.18-2.2 9.47 11.13-5.59-8.9-3.89" fill="#101010"/><path d="m55.17-87.45-8.24 5.13 11.81 3.92-3.54-9.04" fill="#101010"/><path d="m56.75-92.48-8.25 5.14 11.82 3.92-3.55-9.05" fill="#101010"/><path d="m72.42-70.12-9.46-2.2 5.58 11.12 3.89-8.9" fill="#101010"/><path d="m77.09-72.57-9.46-2.2 5.58 11.13 3.89-8.9" fill="#101010"/><path d="m72.36-45.67-5.13-8.25-3.92 11.82 9.05-3.55" fill="#101010"/><path d="m77.39-44.1-5.13-8.25-3.92 11.82 9.04-3.55" fill="#101010"/><path d="m55.04-28.43 2.2-9.46-11.13 5.59 8.9 3.89" fill="#101010"/><path d="m57.48-23.76 2.2-9.46-11.13 5.58 8.91 3.89" fill="#101010"/><path d="m30.59-28.48 8.24-5.14-11.81-3.92 3.54 9.05" fill="#101010"/><path d="m29.02-23.46 8.24-5.13-11.81-3.92 3.54 9.05" fill="#101010"/><path d="m48.48-52.59 6.34 6.58" fill="none" stroke="#101010" stroke-linecap="round" stroke-miterlimit="10" stroke-width="3"/><g fill="#101010"><path d="m146.63-26.15h-4.96l2.48-16.28z"/><path d="m122.95-34.07-3.51-3.51 13.27-9.76z"/><path d="m111.81-56.42v-4.96l16.28 2.48z"/><path d="m119.73-80.1 3.51-3.51 9.76 13.27z"/><path d="m142.08-91.24h4.96l-2.48 16.28z"/><path d="m165.76-83.32 3.51 3.51-13.27 9.76z"/><path d="m176.9-60.97v4.96l-16.28-2.48z"/><path d="m172.92-30.69-6.91 6-13.65-22.7z"/><path d="m133.75-86.44.72 1.45 1.59.23-1.15 1.13.27 1.59-1.43-.76-1.43.76.28-1.59-1.16-1.13 1.6-.23z"/><path d="m144.63-64.46 1.82 3.68 4.06.59-2.94 2.87.7 4.05-3.64-1.91-3.63 1.91.69-4.05-2.94-2.87 4.07-.59z"/><path d="m156.05-88.16 1.18 2.39 2.63.38-1.9 1.85.44 2.62-2.35-1.23-2.35 1.23.45-2.62-1.9-1.85 2.63-.38z"/><path d="m167.46-52.63 1.18 2.39 2.63.38-1.91 1.85.45 2.62-2.35-1.24-2.35 1.24.45-2.62-1.91-1.85 2.63-.38z"/><path d="m122.28-71.28 1.17 2.38 2.63.38-1.9 1.86.45 2.62-2.35-1.24-2.36 1.24.45-2.62-1.9-1.86 2.63-.38z"/><path d="m134.58-36.93 1.18 2.38 2.63.39-1.9 1.85.44 2.62-2.35-1.24-2.35 1.24.45-2.62-1.9-1.85 2.63-.39z"/><path d="m122.14-49.26.41.83.91.13-.66.64.16.9-.82-.42-.81.42.16-.9-.66-.64.91-.13z"/><path d="m152.36-37.29.4.82.91.14-.66.64.16.9-.81-.43-.82.43.16-.9-.66-.64.91-.14z"/><path d="m164.1-67.66.41.82.91.13-.66.64.16.91-.82-.43-.81.43.16-.91-.66-.64.91-.13z"/><circle cx="47.39" cy="10.89" r="4.67"/><circle cx="59.46" cy="15.68" r="4.67"/><circle cx="68.28" cy="25.19" r="4.67"/><circle cx="72.15" cy="37.58" r="4.67"/><circle cx="70.31" cy="50.43" r="4.67"/><circle cx="63.12" cy="61.23" r="4.67"/><circle cx="72.15" cy="67.89" r="4.67"/><circle cx="51.98" cy="67.89" r="4.67"/><circle cx="39.06" cy="69.1" r="4.67"/><circle cx="26.87" cy="64.62" r="4.67"/><circle cx="17.8" cy="55.34" r="4.67"/><circle cx="13.61" cy="43.06" r="4.67"/><circle cx="15.11" cy="30.17" r="4.67"/><circle cx="22.02" cy="19.18" r="4.67"/><circle cx="32.99" cy="12.24" r="4.67"/></g><path d="m35.7 40.21 6.48 7.19 12.61-12.87" style="fill:none;stroke:#101010;stroke-width:4;stroke-linecap:round;stroke-linejoin:round;stroke-miterlimit:10"/></svg>