<svg enable-background="new 0 0 85.76 79.99" viewBox="0 0 85.76 79.99" xmlns="http://www.w3.org/2000/svg"><g fill="#101010"><path d="m78.86 71.43v2.3c-1.63.59-5.52 1.74-10.99 1.74-5.38 0-9.26-1.15-10.89-1.74v-2.26c1.97.6 5.35 1.2 11.01 1.2 5.51 0 8.9-.64 10.87-1.24m1.5-2.26s-2.64 2-12.38 2c-10.3 0-12.51-2-12.51-2v5.58s4.72 2.23 12.39 2.23c7.81 0 12.49-2.23 12.49-2.23v-5.58z"/><path d="m78.86 67.11v2.3c-1.63.59-5.52 1.74-10.99 1.74-5.38 0-9.26-1.15-10.89-1.74v-2.26c1.97.6 5.35 1.2 11.01 1.2 5.51 0 8.9-.64 10.87-1.24m1.5-2.26s-2.64 2-12.38 2c-10.3 0-12.51-2-12.51-2v5.58s4.72 2.23 12.39 2.23c7.81 0 12.49-2.23 12.49-2.23v-5.58z"/><path d="m78.86 62.59v2.3c-1.63.59-5.52 1.74-10.99 1.74-5.38 0-9.26-1.15-10.89-1.74v-2.26c1.97.6 5.35 1.2 11.01 1.2 5.51 0 8.9-.64 10.87-1.24m1.5-2.26s-2.64 2-12.38 2c-10.3 0-12.51-2-12.51-2v5.58s4.72 2.23 12.39 2.23c7.81 0 12.49-2.23 12.49-2.23v-5.58z"/><path d="m78.86 58.07v2.3c-1.63.59-5.52 1.74-10.99 1.74-5.38 0-9.26-1.15-10.89-1.74v-2.26c1.97.6 5.35 1.2 11.01 1.2 5.51 0 8.9-.64 10.87-1.24m1.5-2.26s-2.64 2-12.38 2c-10.3 0-12.51-2-12.51-2v5.58s4.72 2.23 12.39 2.23c7.81 0 12.49-2.23 12.49-2.23v-5.58z"/><path d="m78.86 53.55v2.3c-1.63.59-5.52 1.74-10.99 1.74-5.38 0-9.26-1.15-10.89-1.74v-2.26c1.97.6 5.35 1.2 11.01 1.2 5.51 0 8.9-.64 10.87-1.24m1.5-2.26s-2.64 2-12.38 2c-10.3 0-12.51-2-12.51-2v5.58s4.72 2.23 12.39 2.23c7.81 0 12.49-2.23 12.49-2.23v-5.58z"/><path d="m78.86 49.03v2.3c-1.63.59-5.52 1.74-10.99 1.74-5.38 0-9.26-1.15-10.89-1.74v-2.26c1.97.6 5.35 1.2 11.01 1.2 5.51 0 8.9-.64 10.87-1.24m1.5-2.26s-2.64 2-12.38 2c-10.3 0-12.51-2-12.51-2v5.58s4.72 2.23 12.39 2.23c7.81 0 12.49-2.23 12.49-2.23v-5.58z"/><path d="m78.86 44.51v2.3c-1.63.59-5.52 1.74-10.99 1.74-5.38 0-9.26-1.15-10.89-1.74v-2.26c1.97.6 5.35 1.2 11.01 1.2 5.51 0 8.9-.64 10.87-1.24m1.5-2.26s-2.64 2-12.38 2c-10.3 0-12.51-2-12.51-2v5.58s4.72 2.23 12.39 2.23c7.81 0 12.49-2.23 12.49-2.23v-5.58z"/><path d="m78.86 39.98v2.3c-1.63.59-5.52 1.74-10.99 1.74-5.38 0-9.26-1.15-10.89-1.74v-2.26c1.97.6 5.35 1.2 11.01 1.2 5.51.01 8.9-.63 10.87-1.24m1.5-2.25s-2.64 2-12.38 2c-10.3 0-12.51-2-12.51-2v5.58s4.72 2.23 12.39 2.23c7.81 0 12.49-2.23 12.49-2.23v-5.58z"/><path d="m78.86 35.46v2.3c-1.63.59-5.52 1.74-10.99 1.74-5.38 0-9.26-1.15-10.89-1.74v-2.26c1.97.6 5.35 1.2 11.01 1.2 5.51.01 8.9-.63 10.87-1.24m1.5-2.25s-2.64 2-12.38 2c-10.3 0-12.51-2-12.51-2v5.58s4.72 2.23 12.39 2.23c7.81 0 12.49-2.23 12.49-2.23v-5.58z"/><path d="m78.86 30.94v2.3c-1.63.59-5.52 1.74-10.99 1.74-5.38 0-9.26-1.15-10.89-1.74v-2.26c1.97.6 5.35 1.2 11.01 1.2 5.51.01 8.9-.63 10.87-1.24m1.5-2.26s-2.64 2-12.38 2c-10.3 0-12.51-2-12.51-2v5.58s4.72 2.23 12.39 2.23c7.81 0 12.49-2.23 12.49-2.23v-5.58z"/><path d="m78.86 26.42v2.3c-1.63.59-5.52 1.74-10.99 1.74-5.38 0-9.26-1.15-10.89-1.74v-2.26c1.97.6 5.35 1.2 11.01 1.2 5.51.01 8.9-.63 10.87-1.24m1.5-2.26s-2.64 2-12.38 2c-10.3 0-12.51-2-12.51-2v5.58s4.72 2.23 12.39 2.23c7.81 0 12.49-2.23 12.49-2.23v-5.58z"/><path d="m67.92 22.7c5.44 0 9.04.82 10.45 1.46-1.41.64-5.01 1.46-10.45 1.46s-9.04-.82-10.45-1.46c1.41-.64 5.01-1.46 10.45-1.46m0-1.5c-6.87 0-12.44 1.33-12.44 2.96s5.57 2.96 12.44 2.96 12.44-1.33 12.44-2.96-5.57-2.96-12.44-2.96z"/><path d="m32.58 33.69c1.68 1.2 4.69 2.84 10.05 4.64 5.28 1.78 8.69 2.24 10.71 2.29l-.73 2.18c-.15 0-.32.01-.51.01-1.84 0-5.66-.24-10.47-1.86-5.1-1.71-8.41-4.04-9.77-5.12zm-.69-2.66-1.78 5.29s3.76 3.62 11.03 6.06c4.94 1.66 8.87 1.94 10.95 1.94 1.03 0 1.61-.07 1.61-.07l1.78-5.29s-.52.17-1.74.17c-1.8 0-5.14-.37-10.63-2.22-9.77-3.28-11.22-5.88-11.22-5.88z"/><path d="m34.53 31.83c2.31 0 5.88.74 9.55 1.97 5.14 1.73 8.29 3.65 9.43 4.71-.21.02-.48.04-.81.04-2.31 0-5.88-.74-9.55-1.97-5.14-1.73-8.29-3.65-9.43-4.71.21-.02.48-.04.81-.04m0-1.5c-1.52 0-2.51.29-2.71.89-.52 1.55 4.34 4.58 10.85 6.77 3.98 1.34 7.65 2.05 10.03 2.05 1.52 0 2.51-.29 2.71-.89.52-1.55-4.34-4.58-10.85-6.77-3.97-1.33-7.65-2.05-10.03-2.05z"/><path d="m53.57 22.26.44 2.26c-1.49.89-5.09 2.76-10.47 3.79-2.28.44-4.55.66-6.76.66-1.92 0-3.39-.17-4.26-.31l-.43-2.22c.59.06 1.29.1 2.12.1 2.43 0 5.43-.34 8.91-1.01 5.42-1.04 8.63-2.3 10.45-3.27m1.05-2.51s-2.21 2.47-11.77 4.31c-3.91.75-6.69.99-8.63.99-3.07 0-4.03-.58-4.03-.58l1.06 5.48s2.07.53 5.54.53c1.95 0 4.34-.17 7.05-.69 7.67-1.48 11.85-4.56 11.85-4.56z"/><path d="m49.69 20.07c1.47 0 2.43.13 3 .27-1.27.9-4.65 2.38-9.97 3.41-2.7.52-5.37.81-7.53.81-1.47 0-2.43-.13-3-.27 1.27-.9 4.65-2.38 9.97-3.41 2.7-.52 5.38-.81 7.53-.81m0-1.5c-2.18 0-4.9.27-7.81.84-6.75 1.3-11.97 3.66-11.66 5.27.18.91 2.1 1.39 4.97 1.39 2.18 0 4.9-.27 7.81-.84 6.75-1.3 11.97-3.66 11.66-5.27-.18-.91-2.1-1.39-4.97-1.39z"/><path d="m7.95 27.2c1.89.83 5.17 1.82 10.79 2.49 2.31.28 4.44.42 6.33.42 2.02 0 3.52-.16 4.62-.36l-.27 2.28c-1.19.28-3.51.7-6.65.7-1.46 0-2.97-.09-4.47-.27-5.34-.64-9.05-2.24-10.61-3.02zm-1.21-2.46-.66 5.54s4.42 2.77 12.04 3.68c1.69.2 3.25.28 4.65.28 5.02 0 8.02-1.01 8.02-1.01l.66-5.54s-1.58.93-6.38.93c-1.65 0-3.68-.11-6.15-.4-10.23-1.23-12.18-3.48-12.18-3.48z"/><path d="m13.86 24.63c1.69 0 3.5.11 5.38.34 5.38.64 8.86 1.88 10.19 2.68-.82.26-2.42.56-5.15.56-1.69 0-3.5-.11-5.38-.34-5.38-.64-8.86-1.88-10.19-2.68.81-.26 2.41-.56 5.15-.56m0-1.5c-4.11 0-7.01.67-7.14 1.82-.19 1.63 5.18 3.6 12 4.42 1.99.24 3.87.35 5.56.35 4.11 0 7.01-.67 7.14-1.82.19-1.63-5.18-3.6-12-4.42-1.99-.24-3.88-.35-5.56-.35z"/><path d="m33 8.11c1.84.94 5.06 2.11 10.63 3.08 3.09.54 5.84.82 8.16.82 1.12 0 2.03-.06 2.77-.16l-.4 2.27c-.94.17-2.59.38-4.77.38-2.07 0-4.21-.19-6.36-.57-5.3-.93-8.92-2.74-10.42-3.6zm-1.08-2.53-.96 5.49s4.26 3.01 11.82 4.34c2.52.44 4.76.59 6.62.59 3.82 0 6.07-.63 6.07-.63l.96-5.49s-1.22.63-4.64.63c-1.9 0-4.48-.19-7.9-.8-10.14-1.77-11.97-4.13-11.97-4.13z"/><path d="m37.29 5.81c2.1 0 4.55.24 7.11.69 5.34.94 8.74 2.37 10.03 3.24-.62.16-1.71.33-3.43.33-2.1 0-4.55-.24-7.11-.69-5.34-.94-8.74-2.37-10.03-3.24.63-.16 1.71-.33 3.43-.33m0-1.5c-3.12 0-5.23.51-5.4 1.47-.28 1.61 4.97 3.88 11.74 5.07 2.72.48 5.27.71 7.37.71 3.12 0 5.23-.51 5.4-1.47.28-1.61-4.97-3.88-11.74-5.07-2.72-.48-5.27-.71-7.37-.71z"/><path d="m30.47 71.47v2.3c-1.63.59-5.52 1.74-10.99 1.74-5.38 0-9.26-1.15-10.89-1.74v-2.26c1.97.6 5.35 1.2 11.01 1.2 5.51 0 8.9-.64 10.87-1.24m1.5-2.26s-2.64 2-12.38 2c-10.3 0-12.51-2-12.51-2v5.58s4.72 2.23 12.39 2.23c7.81 0 12.49-2.23 12.49-2.23v-5.58z"/><path d="m30.47 66.95v2.3c-1.63.59-5.52 1.74-10.99 1.74-5.38 0-9.26-1.15-10.89-1.74v-2.26c1.97.6 5.35 1.2 11.01 1.2 5.51 0 8.9-.64 10.87-1.24m1.5-2.26s-2.64 2-12.38 2c-10.3 0-12.51-2-12.51-2v5.58s4.72 2.23 12.39 2.23c7.81 0 12.49-2.23 12.49-2.23v-5.58z"/><path d="m30.47 62.43v2.3c-1.63.59-5.52 1.74-10.99 1.74-5.38 0-9.26-1.15-10.89-1.74v-2.26c1.97.6 5.35 1.2 11.01 1.2 5.51 0 8.9-.64 10.87-1.24m1.5-2.26s-2.64 2-12.38 2c-10.3 0-12.51-2-12.51-2v5.58s4.72 2.23 12.39 2.23c7.81 0 12.49-2.23 12.49-2.23v-5.58z"/><path d="m30.47 57.9v2.3c-1.63.59-5.52 1.74-10.99 1.74-5.38 0-9.26-1.15-10.89-1.74v-2.26c1.97.6 5.35 1.2 11.01 1.2 5.51.01 8.9-.63 10.87-1.24m1.5-2.25s-2.64 2-12.38 2c-10.3 0-12.51-2-12.51-2v5.58s4.72 2.23 12.39 2.23c7.81 0 12.49-2.23 12.49-2.23v-5.58z"/><path d="m30.47 53.38v2.3c-1.63.59-5.52 1.74-10.99 1.74-5.38 0-9.26-1.15-10.89-1.74v-2.26c1.97.6 5.35 1.2 11.01 1.2 5.51.01 8.9-.63 10.87-1.24m1.5-2.25s-2.64 2-12.38 2c-10.3 0-12.51-2-12.51-2v5.58s4.72 2.23 12.39 2.23c7.81 0 12.49-2.23 12.49-2.23v-5.58z"/><path d="m30.47 48.86v2.3c-1.63.59-5.52 1.74-10.99 1.74-5.38 0-9.26-1.15-10.89-1.74v-2.26c1.97.6 5.35 1.2 11.01 1.2 5.51.01 8.9-.63 10.87-1.24m1.5-2.26s-2.64 2-12.38 2c-10.3 0-12.51-2-12.51-2v5.58s4.72 2.23 12.39 2.23c7.81 0 12.49-2.23 12.49-2.23v-5.58z"/><path d="m30.47 44.34v2.3c-1.63.59-5.52 1.74-10.99 1.74-5.38 0-9.26-1.15-10.89-1.74v-2.26c1.97.6 5.35 1.2 11.01 1.2 5.51.01 8.9-.63 10.87-1.24m1.5-2.26s-2.64 2-12.38 2c-10.3 0-12.51-2-12.51-2v5.58s4.72 2.23 12.39 2.23c7.81 0 12.49-2.23 12.49-2.23v-5.58z"/><path d="m30.47 39.82v2.3c-1.63.59-5.52 1.74-10.99 1.74-5.38 0-9.26-1.15-10.89-1.74v-2.26c1.97.6 5.35 1.2 11.01 1.2 5.51.01 8.9-.63 10.87-1.24m1.5-2.26s-2.64 2-12.38 2c-10.3 0-12.51-2-12.51-2v5.58s4.72 2.23 12.39 2.23c7.81 0 12.49-2.23 12.49-2.23v-5.58z"/><path d="m19.53 36.1c5.44 0 9.04.82 10.45 1.46-1.41.64-5.01 1.46-10.45 1.46s-9.04-.82-10.45-1.46c1.41-.64 5.01-1.46 10.45-1.46m0-1.5c-6.87 0-12.44 1.33-12.44 2.96 0 1.64 5.57 2.96 12.44 2.96s12.44-1.33 12.44-2.96-5.57-2.96-12.44-2.96z"/><path d="m54.83 71.47v2.3c-1.63.59-5.52 1.74-10.99 1.74-5.38 0-9.26-1.15-10.89-1.74v-2.26c1.97.6 5.35 1.2 11.01 1.2 5.51 0 8.89-.64 10.87-1.24m1.5-2.26s-2.64 2-12.38 2c-10.3 0-12.51-2-12.51-2v5.58s4.72 2.23 12.39 2.23c7.81 0 12.49-2.23 12.49-2.23v-5.58z"/><path d="m54.83 66.95v2.3c-1.63.59-5.52 1.74-10.99 1.74-5.38 0-9.26-1.15-10.89-1.74v-2.26c1.97.6 5.35 1.2 11.01 1.2 5.51 0 8.89-.64 10.87-1.24m1.5-2.26s-2.64 2-12.38 2c-10.3 0-12.51-2-12.51-2v5.58s4.72 2.23 12.39 2.23c7.81 0 12.49-2.23 12.49-2.23v-5.58z"/><path d="m54.83 62.43v2.3c-1.63.59-5.52 1.74-10.99 1.74-5.38 0-9.26-1.15-10.89-1.74v-2.26c1.97.6 5.35 1.2 11.01 1.2 5.51 0 8.89-.64 10.87-1.24m1.5-2.26s-2.64 2-12.38 2c-10.3 0-12.51-2-12.51-2v5.58s4.72 2.23 12.39 2.23c7.81 0 12.49-2.23 12.49-2.23v-5.58z"/><path d="m54.83 57.9v2.3c-1.63.59-5.52 1.74-10.99 1.74-5.38 0-9.26-1.15-10.89-1.74v-2.26c1.97.6 5.35 1.2 11.01 1.2 5.51.01 8.89-.63 10.87-1.24m1.5-2.25s-2.64 2-12.38 2c-10.3 0-12.51-2-12.51-2v5.58s4.72 2.23 12.39 2.23c7.81 0 12.49-2.23 12.49-2.23v-5.58z"/><path d="m54.83 53.38v2.3c-1.63.59-5.52 1.74-10.99 1.74-5.38 0-9.26-1.15-10.89-1.74v-2.26c1.97.6 5.35 1.2 11.01 1.2 5.51.01 8.89-.63 10.87-1.24m1.5-2.25s-2.64 2-12.38 2c-10.3 0-12.51-2-12.51-2v5.58s4.72 2.23 12.39 2.23c7.81 0 12.49-2.23 12.49-2.23v-5.58z"/><path d="m54.83 48.86v2.3c-1.63.59-5.52 1.74-10.99 1.74-5.38 0-9.26-1.15-10.89-1.74v-2.26c1.97.6 5.35 1.2 11.01 1.2 5.51.01 8.89-.63 10.87-1.24m1.5-2.26s-2.64 2-12.38 2c-10.3 0-12.51-2-12.51-2v5.58s4.72 2.23 12.39 2.23c7.81 0 12.49-2.23 12.49-2.23v-5.58z"/><path d="m43.89 45.14c5.44 0 9.04.82 10.45 1.46-1.41.64-5.01 1.46-10.45 1.46s-9.04-.82-10.45-1.46c1.41-.63 5.01-1.46 10.45-1.46m0-1.5c-6.87 0-12.44 1.33-12.44 2.96 0 1.64 5.57 2.96 12.44 2.96s12.44-1.33 12.44-2.96-5.57-2.96-12.44-2.96z"/></g><circle cx="42.88" cy="-73.1" fill="none" r="12.61" stroke="#101010" stroke-miterlimit="10" stroke-width="3"/><path d="m13.34-60.95 9.46 2.2-5.58-11.13-3.89 8.9" fill="#101010"/><path d="m8.67-58.51 9.47 2.2-5.59-11.12-3.89 8.9" fill="#101010"/><path d="m13.4-85.4 5.13 8.25 3.92-11.82-9.04 3.54" fill="#101010"/><path d="m8.37-86.97 5.13 8.25 3.92-11.82-9.04 3.54" fill="#101010"/><path d="m30.73-102.65-2.2 9.47 11.12-5.59-8.9-3.89" fill="#101010"/><path d="m28.28-107.31-2.2 9.46 11.13-5.58-8.9-3.9" fill="#101010"/><path d="m55.17-102.59-8.24 5.14 11.81 3.92-3.54-9.05" fill="#101010"/><path d="m56.75-107.62-8.25 5.14 11.82 3.92-3.55-9.05" fill="#101010"/><path d="m72.42-85.26-9.46-2.2 5.58 11.13 3.89-8.9" fill="#101010"/><path d="m77.09-87.7-9.46-2.2 5.58 11.12 3.89-8.9" fill="#101010"/><path d="m72.36-60.81-5.13-8.25-3.92 11.82 9.05-3.54" fill="#101010"/><path d="m77.39-59.24-5.13-8.25-3.92 11.82 9.04-3.54" fill="#101010"/><path d="m55.04-43.56 2.2-9.47-11.13 5.59 8.9 3.89" fill="#101010"/><path d="m57.48-38.9 2.2-9.46-11.13 5.58 8.91 3.9" fill="#101010"/><path d="m30.59-43.62 8.24-5.14-11.81-3.92 3.54 9.05" fill="#101010"/><path d="m29.02-38.59 8.24-5.14-11.81-3.92 3.54 9.05" fill="#101010"/><path d="m48.48-67.73 6.34 6.58" fill="none" stroke="#101010" stroke-linecap="round" stroke-miterlimit="10" stroke-width="3"/><path d="m182.04-14.88h-5.23l2.62-17.13z" fill="#101010"/><path d="m157.12-23.22-3.69-3.69 13.96-10.27z" fill="#101010"/><path d="m145.4-46.73v-5.22l17.13 2.61z" fill="#101010"/><path d="m153.74-71.64 3.69-3.7 10.26 13.96z" fill="#101010"/><path d="m177.25-83.37h5.22l-2.61 17.13z" fill="#101010"/><path d="m202.16-75.03 3.69 3.69-13.96 10.27z" fill="#101010"/><path d="m213.88-51.52v5.22l-17.13-2.61z" fill="#101010"/><path d="m209.69-19.67-7.27 6.32-14.36-23.88z" fill="#101010"/><path d="m168.49-78.31.75 1.52 1.68.24-1.22 1.19.29 1.67-1.5-.79-1.51.79.29-1.67-1.21-1.19 1.68-.24z" fill="#101010"/><path d="m179.93-55.19 1.91 3.87 4.28.63-3.1 3.01.73 4.26-3.82-2.01-3.82 2.01.73-4.26-3.09-3.01 4.27-.63z" fill="#101010"/><path d="m191.95-80.12 1.23 2.51 2.77.4-2 1.95.47 2.76-2.47-1.3-2.48 1.3.47-2.76-2-1.95 2.77-.4z" fill="#101010"/><path d="m203.95-42.74 1.23 2.5 2.77.41-2 1.95.47 2.75-2.47-1.3-2.48 1.3.47-2.75-2-1.95 2.77-.41z" fill="#101010"/><path d="m156.41-62.37 1.24 2.51 2.77.4-2.01 1.95.48 2.76-2.48-1.3-2.47 1.3.47-2.76-2-1.95 2.77-.4z" fill="#101010"/><path d="m169.36-26.23 1.24 2.51 2.76.4-2 1.95.47 2.76-2.47-1.3-2.48 1.3.48-2.76-2-1.95 2.76-.4z" fill="#101010"/><path d="m156.27-39.2.43.87.96.14-.69.67.16.95-.86-.45-.85.45.16-.95-.69-.67.96-.14z" fill="#101010"/><path d="m188.06-26.61.42.87.96.14-.69.67.16.95-.85-.45-.86.45.17-.95-.7-.67.96-.14z" fill="#101010"/><path d="m200.41-58.56.43.87.96.14-.69.67.16.95-.86-.45-.85.45.16-.95-.69-.67.96-.14z" fill="#101010"/><circle cx="47.39" cy="108.93" fill="#101010" r="4.67"/><circle cx="59.46" cy="113.72" fill="#101010" r="4.67"/><circle cx="68.28" cy="123.23" fill="#101010" r="4.67"/><circle cx="72.15" cy="135.62" fill="#101010" r="4.67"/><circle cx="70.31" cy="148.47" fill="#101010" r="4.67"/><circle cx="63.12" cy="159.27" fill="#101010" r="4.67"/><circle cx="72.15" cy="165.93" fill="#101010" r="4.67"/><circle cx="51.98" cy="165.93" fill="#101010" r="4.67"/><circle cx="39.06" cy="167.14" fill="#101010" r="4.67"/><circle cx="26.87" cy="162.66" fill="#101010" r="4.67"/><circle cx="17.8" cy="153.38" fill="#101010" r="4.67"/><circle cx="13.61" cy="141.1" fill="#101010" r="4.67"/><circle cx="15.11" cy="128.21" fill="#101010" r="4.67"/><circle cx="22.02" cy="117.22" fill="#101010" r="4.67"/><circle cx="32.99" cy="110.28" fill="#101010" r="4.67"/><path d="m35.7 138.25 6.48 7.19 12.61-12.87" style="fill:none;stroke:#101010;stroke-width:4;stroke-linecap:round;stroke-linejoin:round;stroke-miterlimit:10"/></svg>